<svg width="3461" height="1874" xmlns="http://www.w3.org/2000/svg" xmlns:xlink="http://www.w3.org/1999/xlink" overflow="hidden"><defs><clipPath id="clip0"><rect x="375" y="246" width="3461" height="1874"/></clipPath></defs><g clip-path="url(#clip0)" transform="translate(-375 -246)"><path d="M2782.5 1682.1C2782.5 1662.99 2797.99 1647.5 2817.1 1647.5L3798.9 1647.5C3818.01 1647.5 3833.5 1662.99 3833.5 1682.1L3833.5 2067.9C3833.5 2087.01 3818.01 2102.5 3798.9 2102.5L2817.1 2102.5C2797.99 2102.5 2782.5 2087.01 2782.5 2067.9Z" stroke="#000000" stroke-width="4.58333" stroke-miterlimit="8" fill="#E2F0D9" fill-rule="evenodd"/><path d="M2761.5 364.025C2761.5 319 2798 282.5 2843.02 282.5L3751.97 282.5C3797 282.5 3833.5 319 3833.5 364.025L3833.5 1350.97C3833.5 1396 3797 1432.5 3751.97 1432.5L2843.02 1432.5C2798 1432.5 2761.5 1396 2761.5 1350.97Z" stroke="#000000" stroke-width="4.58333" stroke-miterlimit="8" fill="#FFCCCC" fill-rule="evenodd"/><path d="M1298.5 1697.1C1298.5 1677.99 1313.99 1662.5 1333.1 1662.5L2314.9 1662.5C2334.01 1662.5 2349.5 1677.99 2349.5 1697.1L2349.5 2082.9C2349.5 2102.01 2334.01 2117.5 2314.9 2117.5L1333.1 2117.5C1313.99 2117.5 1298.5 2102.01 1298.5 2082.9Z" stroke="#000000" stroke-width="4.58333" stroke-miterlimit="8" fill="#FBE5D6" fill-rule="evenodd"/><path d="M1266.5 358.102C1266.5 313.034 1303.03 276.5 1348.1 276.5L2257.9 276.5C2302.97 276.5 2339.5 313.034 2339.5 358.102L2339.5 1359.9C2339.5 1404.97 2302.97 1441.5 2257.9 1441.5L1348.1 1441.5C1303.03 1441.5 1266.5 1404.97 1266.5 1359.9Z" stroke="#000000" stroke-width="4.58333" stroke-miterlimit="8" fill="#DEEBF7" fill-rule="evenodd"/><path d="M1049.73 1179 1049.73 1834.13 1153 1834.13 1153 1809 1206 1862 1153 1915 1153 1889.87 994 1889.87 994 1179Z" fill="#D9D9D9" fill-rule="evenodd"/><path d="M402.5 358.168C402.5 316.378 436.378 282.5 478.168 282.5L780.832 282.5C822.622 282.5 856.5 316.378 856.5 358.168L856.5 661.832C856.5 703.622 822.622 737.5 780.832 737.5L478.168 737.5C436.378 737.5 402.5 703.622 402.5 661.832Z" stroke="#000000" stroke-width="4.58333" stroke-miterlimit="8" fill="#E7E6E6" fill-rule="evenodd"/><path d="M377.5 337.335C377.5 295.453 411.452 261.5 453.335 261.5L756.665 261.5C798.548 261.5 832.5 295.453 832.5 337.335L832.5 640.665C832.5 682.547 798.548 716.5 756.665 716.5L453.335 716.5C411.452 716.5 377.5 682.547 377.5 640.665Z" stroke="#000000" stroke-width="4.58333" stroke-miterlimit="8" fill="#E7E6E6" fill-rule="evenodd"/><text font-family="Arial,Arial_MSFontService,sans-serif" font-style="italic" font-weight="700" font-size="83" transform="matrix(1 0 0 1 509.92 473)">Web <tspan font-size="83" x="-73.3333" y="99">Interface</tspan></text><path d="M402.5 1048.17C402.5 1006.38 436.378 972.5 478.168 972.5L780.832 972.5C822.623 972.5 856.501 1006.38 856.501 1048.17L856.501 1351.83C856.501 1393.62 822.623 1427.5 780.832 1427.5L478.168 1427.5C436.378 1427.5 402.5 1393.62 402.5 1351.83Z" stroke="#000000" stroke-width="4.58333" stroke-miterlimit="8" fill="#E7E6E6" fill-rule="evenodd"/><path d="M377.5 1027.33C377.5 985.452 411.452 951.5 453.335 951.5L756.665 951.5C798.548 951.5 832.5 985.452 832.5 1027.33L832.5 1330.66C832.5 1372.55 798.548 1406.5 756.665 1406.5L453.335 1406.5C411.452 1406.5 377.5 1372.55 377.5 1330.66Z" stroke="#000000" stroke-width="4.58333" stroke-miterlimit="8" fill="#E7E6E6" fill-rule="evenodd"/><text font-family="Arial,Arial_MSFontService,sans-serif" font-style="italic" font-weight="700" font-size="83" transform="matrix(1 0 0 1 528.253 1163)">API <tspan font-size="83" x="-48.125" y="99">Server</tspan></text><path d="M402.5 1738.17C402.5 1696.38 436.378 1662.5 478.168 1662.5L780.832 1662.5C822.623 1662.5 856.501 1696.38 856.501 1738.17L856.501 2041.83C856.501 2083.62 822.623 2117.5 780.832 2117.5L478.168 2117.5C436.378 2117.5 402.5 2083.62 402.5 2041.83Z" stroke="#000000" stroke-width="4.58333" stroke-miterlimit="8" fill="#E7E6E6" fill-rule="evenodd"/><path d="M377.5 1717.33C377.5 1675.45 411.452 1641.5 453.335 1641.5L756.665 1641.5C798.548 1641.5 832.5 1675.45 832.5 1717.33L832.5 2020.66C832.5 2062.55 798.548 2096.5 756.665 2096.5L453.335 2096.5C411.452 2096.5 377.5 2062.55 377.5 2020.66Z" stroke="#000000" stroke-width="4.58333" stroke-miterlimit="8" fill="#E7E6E6" fill-rule="evenodd"/><text font-family="Arial,Arial_MSFontService,sans-serif" font-style="italic" font-weight="700" font-size="83" transform="matrix(1 0 0 1 443.461 1853)">CAMEO <tspan font-size="83" x="25.2083" y="99">Sender</tspan></text><path d="M499 861 519.5 861 519.5 794 560.5 794 560.5 861 581 861 540 902Z" fill="#D9D9D9" fill-rule="evenodd"/><path d="M0 67.0001 20.4999 67.0001 20.4999 0 61.4999 0 61.4999 67.0001 81.9998 67.0001 41 108Z" fill="#D9D9D9" fill-rule="evenodd" transform="matrix(1 0 0 -1 636 902)"/><path d="M0 72.5001 23.75 72.5001 23.75 0 71.2499 0 71.2499 72.5001 94.9999 72.5001 47.5 120Z" fill="#D9D9D9" fill-rule="evenodd" transform="matrix(1 0 0 -1 561 1598)"/><path d="M1252.5 328.428C1252.5 284.285 1288.29 248.5 1332.43 248.5L2223.57 248.5C2267.71 248.5 2303.5 284.285 2303.5 328.428L2303.5 1333.57C2303.5 1377.71 2267.71 1413.5 2223.57 1413.5L1332.43 1413.5C1288.29 1413.5 1252.5 1377.71 1252.5 1333.57Z" stroke="#000000" stroke-width="4.58333" stroke-miterlimit="8" fill="#DEEBF7" fill-rule="evenodd"/><text font-family="Arial,Arial_MSFontService,sans-serif" font-style="italic" font-weight="700" font-size="83" transform="matrix(1 0 0 1 1450.97 366)">Homology Miner</text><path d="M1307.5 475.212C1307.5 454.384 1324.38 437.5 1345.21 437.5L2211.79 437.5C2232.62 437.5 2249.5 454.384 2249.5 475.212L2249.5 768.788C2249.5 789.616 2232.62 806.5 2211.79 806.5L1345.21 806.5C1324.38 806.5 1307.5 789.616 1307.5 768.788Z" stroke="#000000" stroke-width="4.58333" stroke-miterlimit="8" fill="#FFFFFF" fill-rule="evenodd"/><text font-family="Arial,Arial_MSFontService,sans-serif" font-style="italic" font-weight="700" font-size="73" transform="matrix(1 0 0 1 1542.74 536)">MSA Search<tspan font-weight="400" font-size="64" x="-172.138" y="103">H</tspan><tspan font-weight="400" font-size="64" x="-125.732" y="103">H</tspan><tspan font-weight="400" font-size="64" x="-79.3256" y="103">blits</tspan><tspan font-weight="400" font-size="64" x="113.221" y="101">jackhmmer</tspan><tspan font-weight="400" font-size="64" x="469.818" y="106">BLAST</tspan><tspan font-weight="400" font-size="64" x="-81.0475" y="221">DeepMSA2</tspan><tspan font-weight="400" font-size="64" x="316.915" y="221">MMSeqs2</tspan></text><path d="M1307.5 984.314C1307.5 963.43 1324.43 946.5 1345.31 946.5L2210.69 946.5C2231.57 946.5 2248.5 963.43 2248.5 984.314L2248.5 1278.69C2248.5 1299.57 2231.57 1316.5 2210.69 1316.5L1345.31 1316.5C1324.43 1316.5 1307.5 1299.57 1307.5 1278.69Z" stroke="#000000" stroke-width="4.58333" stroke-miterlimit="8" fill="#FFFFFF" fill-rule="evenodd"/><text font-family="Arial,Arial_MSFontService,sans-serif" font-style="italic" font-weight="700" font-size="73" transform="matrix(1 0 0 1 1524.97 1041)">MSA Selection<tspan font-weight="400" font-size="64" x="-72.5548" y="112">Sequence</tspan><tspan font-weight="400" font-size="64" x="215.622" y="112">-</tspan><tspan font-weight="400" font-size="64" x="236.82" y="112">based Filter</tspan><tspan font-weight="400" font-size="64" x="-56.3865" y="223">Structure</tspan><tspan font-weight="400" font-size="64" x="203.145" y="223">-</tspan><tspan font-weight="400" font-size="64" x="224.343" y="223">based Filter</tspan></text><path d="M1724.5 879.5 1750.5 879.5 1750.5 824.5 1802.5 824.5 1802.5 879.5 1828.5 879.5 1776.5 931.5Z" stroke="#000000" stroke-width="4.58333" stroke-miterlimit="8" fill="#FFFFFF" fill-rule="evenodd"/><path d="M910 1132.75 1150.5 1132.75 1150.5 1105 1206 1160.5 1150.5 1216 1150.5 1188.25 910 1188.25Z" fill="#D9D9D9" fill-rule="evenodd"/><text font-family="Arial,Arial_MSFontService,sans-serif" font-style="italic" font-weight="400" font-size="64" transform="matrix(1 0 0 1 910.017 1089)">Sequence</text><text font-family="Arial,Arial_MSFontService,sans-serif" font-style="italic" font-weight="400" font-size="64" transform="matrix(6.12323e-17 1 -1 6.12323e-17 1086.92 1378)">Sequence</text><path d="M1272.5 1657.62C1272.5 1637.67 1288.67 1621.5 1308.62 1621.5L2288.38 1621.5C2308.33 1621.5 2324.5 1637.67 2324.5 1657.62L2324.5 2060.38C2324.5 2080.33 2308.33 2096.5 2288.38 2096.5L1308.62 2096.5C1288.67 2096.5 1272.5 2080.33 1272.5 2060.38Z" stroke="#000000" stroke-width="4.58333" stroke-miterlimit="8" fill="#FBE5D6" fill-rule="evenodd"/><text font-family="Arial,Arial_MSFontService,sans-serif" font-style="italic" font-weight="700" font-size="73" transform="matrix(1 0 0 1 1390.24 1711)">Single sequence<tspan font-size="73" x="578.073" y="0">-</tspan><tspan font-size="73" x="602.708" y="0">based </tspan><tspan font-size="73" x="60.4312" y="88">structure </tspan><tspan font-size="73" x="399.025" y="88">prediction </tspan></text><path d="M1332.5 1863.76C1332.5 1852.02 1342.02 1842.5 1353.76 1842.5L2252.24 1842.5C2263.98 1842.5 2273.5 1852.02 2273.5 1863.76L2273.5 2029.24C2273.5 2040.98 2263.98 2050.5 2252.24 2050.5L1353.76 2050.5C1342.02 2050.5 1332.5 2040.98 1332.5 2029.24Z" stroke="#000000" stroke-width="4.58333" stroke-miterlimit="8" fill="#FFFFFF" fill-rule="evenodd"/><text font-family="Arial,Arial_MSFontService,sans-serif" font-style="italic" font-weight="400" font-size="64" transform="matrix(1 0 0 1 1429.26 1928)">ESMFold<tspan font-size="64" x="399.873" y="-3">OmegaFold</tspan><tspan font-size="64" x="169.684" y="86">RaptorX</tspan>-<tspan font-size="64" x="425.778" y="86">single</tspan></text><path d="M2733.5 330.102C2733.5 285.035 2770.03 248.5 2815.1 248.5L3724.9 248.5C3769.97 248.5 3806.5 285.035 3806.5 330.102L3806.5 1324.9C3806.5 1369.97 3769.97 1406.5 3724.9 1406.5L2815.1 1406.5C2770.03 1406.5 2733.5 1369.97 2733.5 1324.9Z" stroke="#000000" stroke-width="4.58333" stroke-miterlimit="8" fill="#FFCCCC" fill-rule="evenodd"/><text font-family="Arial,Arial_MSFontService,sans-serif" font-style="italic" font-weight="700" font-size="73" transform="matrix(1 0 0 1 3054.78 370)">MSA<tspan font-size="73" x="162.708" y="0">-</tspan><tspan font-size="73" x="187.344" y="0">based </tspan><tspan font-size="73" x="-147.24" y="88">structure prediction</tspan></text><path d="M2530.05 896 2530.05 1140.47 2626.5 1140.47 2626.5 1117 2676 1166.5 2626.5 1216 2626.5 1192.53 2478 1192.53 2478 896Z" fill="#D9D9D9" fill-rule="evenodd"/><path d="M0 147.422 179.711 147.422 179.711 50.0002 156 50.0002 206 0 256 50.0002 232.289 50.0002 232.289 200 0 200Z" fill="#D9D9D9" fill-rule="evenodd" transform="matrix(-1.83697e-16 -1 -1 1.83697e-16 2678 896)"/><rect x="2376" y="899" width="155" height="41.0002" fill="#D9D9D9"/><path d="M2834.5 1056.08C2834.5 1043.06 2845.06 1032.5 2858.08 1032.5L3701.92 1032.5C3714.94 1032.5 3725.5 1043.06 3725.5 1056.08L3725.5 1318.92C3725.5 1331.94 3714.94 1342.5 3701.92 1342.5L2858.08 1342.5C2845.06 1342.5 2834.5 1331.94 2834.5 1318.92Z" stroke="#000000" stroke-width="4.58333" stroke-miterlimit="8" fill="#FFFFFF" fill-rule="evenodd"/><text font-family="Arial,Arial_MSFontService,sans-serif" font-style="italic" font-weight="700" font-size="73" transform="matrix(1 0 0 1 2933.35 1121)">Structure Prediction</text><path d="M2834.5 540.41C2834.5 524.996 2847 512.5 2862.41 512.5L3697.59 512.5C3713 512.5 3725.5 524.996 3725.5 540.41L3725.5 851.59C3725.5 867.004 3713 879.5 3697.59 879.5L2862.41 879.5C2847 879.5 2834.5 867.004 2834.5 851.59Z" stroke="#000000" stroke-width="4.58333" stroke-miterlimit="8" fill="#FFFFFF" fill-rule="evenodd"/><text font-family="Arial,Arial_MSFontService,sans-serif" font-style="italic" font-weight="700" font-size="73" transform="matrix(1 0 0 1 2917.66 608)">Template <tspan font-size="73" x="342.604" y="0">Prepration</tspan><tspan font-weight="400" font-size="64" x="126.55" y="110">Template Search</tspan><tspan font-weight="400" font-size="64" x="126.55" y="214">Template Selection</tspan><tspan font-weight="400" font-size="64" x="-362.756" y="332">MSA</tspan></text><path d="M3220.5 956.5 3246.5 956.5 3246.5 900.5 3298.5 900.5 3298.5 956.5 3324.5 956.5 3272.5 1008.5Z" stroke="#000000" stroke-width="4.58333" stroke-miterlimit="8" fill="#FFFFFF" fill-rule="evenodd"/><path d="M2967 741.313C2967 762.887 2979.65 781.729 2997.75 787.123L2997.75 781.998 3008 793.75 2997.75 802.498 2997.75 797.373C2979.65 791.979 2967 773.137 2967 751.562Z" fill="#C00000" fill-rule="evenodd"/><path d="M3008 704.25C2987.08 704.25 2969.51 722.433 2967.24 746.438 2964.79 720.461 2981.05 697.109 3003.56 694.278 3005.03 694.093 3006.52 694 3008 694Z" fill="#9A0000" fill-rule="evenodd"/><path d="M2733.5 1656.03C2733.5 1636.96 2748.96 1621.5 2768.03 1621.5L3771.97 1621.5C3791.04 1621.5 3806.5 1636.96 3806.5 1656.03L3806.5 2040.97C3806.5 2060.04 3791.04 2075.5 3771.97 2075.5L2768.03 2075.5C2748.96 2075.5 2733.5 2060.04 2733.5 2040.97Z" stroke="#000000" stroke-width="4.58333" stroke-miterlimit="8" fill="#E2F0D9" fill-rule="evenodd"/><text font-family="Arial,Arial_MSFontService,sans-serif" font-style="italic" font-weight="700" font-size="73" transform="matrix(1 0 0 1 2853.6 1734)">Model Quality Estimation</text><path d="M2395 1844.75 2634.5 1844.75 2634.5 1817 2690 1872.5 2634.5 1928 2634.5 1900.25 2395 1900.25Z" fill="#D9D9D9" fill-rule="evenodd"/><path d="M3320 1464 3320 1542 3346 1542 3294 1594 3242 1542 3268 1542 3268 1464Z" fill="#D9D9D9" fill-rule="evenodd"/><text font-family="Arial,Arial_MSFontService,sans-serif" font-style="italic" font-weight="400" font-size="64" transform="matrix(1 0 0 1 3357.78 1550)">Structure<tspan font-size="64" x="-945.387" y="260">Structure</tspan></text><path d="M2844.5 1838.72C2844.5 1830.87 2850.87 1824.5 2858.72 1824.5L3300.28 1824.5C3308.13 1824.5 3314.5 1830.87 3314.5 1838.72L3314.5 1997.28C3314.5 2005.13 3308.13 2011.5 3300.28 2011.5L2858.72 2011.5C2850.87 2011.5 2844.5 2005.13 2844.5 1997.28Z" stroke="#000000" stroke-width="4.58333" stroke-miterlimit="8" fill="#FFFFFF" fill-rule="evenodd"/><text font-family="Arial,Arial_MSFontService,sans-serif" font-style="italic" font-weight="400" font-size="55" transform="matrix(1 0 0 1 2908.76 1887)">Structure_1<tspan font-size="55" x="0" y="73">Structure_2</tspan><tspan font-size="55" x="17.9695" y="110">……</tspan></text><path d="M3402.5 1949.5 3402.5 1930.5 3334.5 1930.5 3334.5 1892.5 3402.5 1892.5 3402.5 1873.5 3440.5 1911.5Z" stroke="#000000" stroke-width="4.58333" stroke-miterlimit="8" fill="#FFFFFF" fill-rule="evenodd"/><path d="M3481.5 1838.72C3481.5 1830.87 3487.87 1824.5 3495.72 1824.5L3709.28 1824.5C3717.13 1824.5 3723.5 1830.87 3723.5 1838.72L3723.5 1997.28C3723.5 2005.13 3717.13 2011.5 3709.28 2011.5L3495.72 2011.5C3487.87 2011.5 3481.5 2005.13 3481.5 1997.28Z" stroke="#000000" stroke-width="4.58333" stroke-miterlimit="8" fill="#FFFFFF" fill-rule="evenodd"/><text font-family="Arial,Arial_MSFontService,sans-serif" font-style="italic" font-weight="400" font-size="55" transform="matrix(1 0 0 1 3491.04 1908)">Optimal<tspan font-size="55" x="0" y="66">Structure</tspan><tspan font-size="64" x="-606.192" y="-668">AlphaFold2 | RoseTTAFold2</tspan></text></g></svg>